<?xml version="1.0" encoding="UTF-8"?> <svg xmlns="http://www.w3.org/2000/svg" width="482" height="270" viewBox="0 0 482 270" fill="none"> <g clip-path="url(#clip0_5651_71237)"> <path opacity="0.1" d="M387.963 189.397C382.482 203.211 371.185 214.005 356.767 221.644C344.033 228.158 330.244 232.358 316.041 234.049C311.176 234.68 306.281 235.053 301.377 235.168C299.643 235.235 297.91 235.235 296.187 235.235C285.359 235.162 274.58 233.776 264.085 231.107C230.384 222.36 199.501 235.962 168.338 244.955L165.564 245.738C154.301 248.87 142.992 251.33 131.472 251.755C87.0992 253.489 58.006 228.881 42.6821 181.042C27.4812 133.593 34.5727 91.2343 51.5297 62.4768C51.5297 62.4768 80.1195 1.24808 165.05 7.9593C169.155 8.28367 173.394 8.76464 177.768 9.43576C184.785 10.4705 191.739 11.9008 198.595 13.7198C214.813 17.914 230.133 25.0244 243.806 34.7035C245.126 35.6319 246.412 36.5715 247.654 37.5222C278.168 60.7654 290.069 88.6281 326.913 88.382C383.109 88.0017 401.788 154.465 387.963 189.397Z" fill="#6CAAAF"></path> <path opacity="0.1" d="M306.315 70.0798C322.08 70.0798 334.86 57.2998 334.86 41.5348C334.86 25.7698 322.08 12.9897 306.315 12.9897C290.55 12.9897 277.77 25.7698 277.77 41.5348C277.77 57.2998 290.55 70.0798 306.315 70.0798Z" fill="#6CAAAF"></path> <path opacity="0.1" d="M426.783 125.047C435.167 125.047 441.963 118.251 441.963 109.867C441.963 101.484 435.167 94.6875 426.783 94.6875C418.4 94.6875 411.604 101.484 411.604 109.867C411.604 118.251 418.4 125.047 426.783 125.047Z" fill="#6CAAAF"></path> <path opacity="0.1" d="M453.394 158.889C458.876 158.889 463.32 154.446 463.32 148.964C463.32 143.482 458.876 139.039 453.394 139.039C447.913 139.039 443.469 143.482 443.469 148.964C443.469 154.446 447.913 158.889 453.394 158.889Z" fill="#6CAAAF"></path> <path d="M286.792 45.6355V195.709C286.792 200.184 282.485 203.819 277.172 203.819H73.5315C68.2185 203.819 63.9121 200.184 63.9121 195.709V45.6355C63.9121 41.1613 68.2185 36.6089 73.5315 36.6089L277.161 37.101C282.474 37.0787 286.792 41.1613 286.792 45.6355Z" fill="white"></path> <path d="M286.79 45.0757V52.0218H63.6191V45.0757C63.6233 43.272 64.165 41.5105 65.1752 40.0163C66.1853 38.522 67.618 37.3627 69.2901 36.6867C70.3966 36.2285 71.5824 35.9929 72.78 35.9932H277.707C280.115 35.9961 282.423 36.954 284.126 38.6566C285.829 40.3593 286.787 42.6678 286.79 45.0757Z" fill="#36B7BD"></path> <path d="M74.425 47.2124C75.06 47.2124 75.6806 47.0241 76.2085 46.6714C76.7364 46.3186 77.1479 45.8173 77.3909 45.2307C77.6339 44.6441 77.6974 43.9986 77.5736 43.3759C77.4497 42.7532 77.1439 42.1812 76.695 41.7322C76.246 41.2833 75.674 40.9775 75.0513 40.8537C74.4286 40.7298 73.7831 40.7934 73.1966 41.0364C72.61 41.2793 72.1086 41.6908 71.7559 42.2187C71.4031 42.7466 71.2148 43.3673 71.2148 44.0022C71.2148 44.8536 71.5531 45.6701 72.1551 46.2721C72.7571 46.8742 73.5736 47.2124 74.425 47.2124Z" fill="white"></path> <path d="M83.7532 47.2124C84.3881 47.2124 85.0087 47.0241 85.5367 46.6714C86.0646 46.3186 86.476 45.8173 86.719 45.2307C86.962 44.6441 87.0255 43.9986 86.9017 43.3759C86.7778 42.7532 86.4721 42.1812 86.0231 41.7322C85.5742 41.2833 85.0022 40.9775 84.3794 40.8537C83.7567 40.7298 83.1113 40.7934 82.5247 41.0364C81.9381 41.2793 81.4367 41.6908 81.084 42.2187C80.7312 42.7466 80.543 43.3673 80.543 44.0022C80.543 44.8536 80.8812 45.6701 81.4832 46.2721C82.0852 46.8742 82.9018 47.2124 83.7532 47.2124Z" fill="white"></path> <path d="M93.0818 47.2124C93.7172 47.2146 94.339 47.0282 94.8684 46.6768C95.3978 46.3254 95.811 45.8248 96.0556 45.2384C96.3003 44.652 96.3655 44.0062 96.2429 43.3828C96.1203 42.7593 95.8154 42.1863 95.3669 41.7362C94.9184 41.2861 94.3465 40.9793 93.7234 40.8545C93.1004 40.7297 92.4544 40.7926 91.8671 41.0353C91.2799 41.2779 90.7779 41.6894 90.4246 42.2175C90.0714 42.7457 89.8828 43.3668 89.8828 44.0022C89.8814 44.4232 89.963 44.8404 90.1231 45.2298C90.2832 45.6192 90.5186 45.9732 90.8158 46.2715C91.113 46.5697 91.4662 46.8063 91.855 46.9678C92.2439 47.1293 92.6608 47.2124 93.0818 47.2124Z" fill="white"></path> <path d="M113.306 65.9141H76.0696C74.6364 65.9141 73.4746 67.0759 73.4746 68.5091V78.2851C73.4746 79.7183 74.6364 80.8801 76.0696 80.8801H113.306C114.739 80.8801 115.901 79.7183 115.901 78.2851V68.5091C115.901 67.0759 114.739 65.9141 113.306 65.9141Z" fill="#36B7BD"></path> <path d="M120.9 67.0103V191.66" stroke="#BEF4F4" stroke-width="1.5" stroke-miterlimit="10"></path> <path d="M115.901 94.1013V119.459C115.901 120.482 115.494 121.463 114.77 122.187C114.047 122.911 113.065 123.317 112.042 123.317H77.3671C76.8579 123.32 76.3532 123.223 75.8818 123.03C75.4104 122.838 74.9816 122.554 74.62 122.196C74.2584 121.837 73.9711 121.411 73.7745 120.941C73.578 120.472 73.4761 119.968 73.4746 119.459V94.1013C73.4746 93.5936 73.5748 93.0909 73.7694 92.6219C73.9641 92.153 74.2493 91.7271 74.6088 91.3686C74.9683 91.0102 75.3951 90.7261 75.8646 90.5329C76.334 90.3396 76.837 90.2409 77.3447 90.2423H112.019C112.528 90.2379 113.033 90.3345 113.505 90.5266C113.976 90.7187 114.405 91.0024 114.766 91.3613C115.127 91.7203 115.413 92.1472 115.608 92.6176C115.803 93.0879 115.902 93.5922 115.901 94.1013Z" fill="#BEF4F4"></path> <path d="M78.3179 90.2422V123.306H77.3447C76.3222 123.306 75.3412 122.901 74.616 122.181C73.8909 121.46 73.4805 120.481 73.4746 119.458V94.1012C73.4746 93.5935 73.5748 93.0907 73.7694 92.6218C73.9641 92.1529 74.2493 91.727 74.6088 91.3685C74.9683 91.01 75.3951 90.726 75.8646 90.5327C76.334 90.3395 76.837 90.2407 77.3447 90.2422H78.3179Z" fill="#36B7BD"></path> <path d="M166.101 66.127H128.865C127.431 66.127 126.27 67.2888 126.27 68.722V78.498C126.27 79.9311 127.431 81.093 128.865 81.093H166.101C167.534 81.093 168.696 79.9311 168.696 78.498V68.722C168.696 67.2888 167.534 66.127 166.101 66.127Z" fill="#FDA402"></path> <path d="M173.695 67.2227V191.861" stroke="#BEF4F4" stroke-width="1.5" stroke-miterlimit="10"></path> <path d="M168.695 94.3028V119.649C168.695 120.673 168.289 121.656 167.566 122.381C166.842 123.107 165.861 123.516 164.836 123.519H130.162C129.137 123.516 128.156 123.107 127.432 122.381C126.709 121.656 126.303 120.673 126.303 119.649V94.3028C126.306 93.2803 126.713 92.3004 127.436 91.5774C128.159 90.8543 129.139 90.4468 130.162 90.4438H164.836C165.859 90.4468 166.839 90.8543 167.562 91.5774C168.285 92.3004 168.692 93.2803 168.695 94.3028Z" fill="#BEF4F4"></path> <path d="M131.102 90.4438V123.519H130.128C129.104 123.516 128.122 123.107 127.399 122.381C126.676 121.656 126.27 120.673 126.27 119.649V94.3028C126.272 93.2803 126.68 92.3004 127.403 91.5774C128.126 90.8543 129.106 90.4468 130.128 90.4438H131.102Z" fill="#FDA402"></path> <path d="M218.884 66.127H181.648C180.215 66.127 179.053 67.2888 179.053 68.722V78.498C179.053 79.9311 180.215 81.093 181.648 81.093H218.884C220.317 81.093 221.479 79.9311 221.479 78.498V68.722C221.479 67.2888 220.317 66.127 218.884 66.127Z" fill="#006C71"></path> <path d="M226.48 67.2227V191.861" stroke="#BEF4F4" stroke-width="1.5" stroke-miterlimit="10"></path> <path d="M221.48 94.3028V119.649C221.481 120.157 221.383 120.66 221.189 121.129C220.996 121.599 220.712 122.025 220.354 122.385C219.995 122.744 219.569 123.03 219.1 123.224C218.631 123.419 218.129 123.519 217.621 123.519H182.946C181.92 123.519 180.936 123.111 180.21 122.385C179.484 121.66 179.076 120.675 179.076 119.649V94.3028C179.079 93.2783 179.488 92.2968 180.214 91.5734C180.939 90.8501 181.922 90.4438 182.946 90.4438H217.621C218.644 90.4438 219.626 90.8504 220.35 91.5741C221.073 92.2978 221.48 93.2793 221.48 94.3028V94.3028Z" stroke="#BEF4F4" stroke-width="1.5" stroke-miterlimit="10"></path> <path d="M221.021 136.516V161.873C221.021 162.897 220.614 163.878 219.891 164.602C219.167 165.326 218.185 165.732 217.162 165.732H182.487C181.463 165.732 180.48 165.326 179.755 164.603C179.029 163.879 178.62 162.898 178.617 161.873V136.516C178.619 136.009 178.72 135.508 178.915 135.04C179.11 134.573 179.396 134.148 179.755 133.791C180.115 133.434 180.541 133.151 181.01 132.958C181.478 132.765 181.981 132.667 182.487 132.668H217.162C217.668 132.667 218.17 132.765 218.638 132.958C219.106 133.151 219.531 133.434 219.89 133.791C220.248 134.149 220.533 134.574 220.727 135.041C220.921 135.509 221.021 136.01 221.021 136.516V136.516Z" stroke="#BEF4F4" stroke-width="1.5" stroke-miterlimit="10"></path> <path d="M168.695 136.516V161.873C168.692 162.896 168.285 163.876 167.562 164.599C166.839 165.322 165.859 165.729 164.836 165.732H130.162C129.139 165.729 128.159 165.322 127.436 164.599C126.713 163.876 126.306 162.896 126.303 161.873V136.516C126.306 135.495 126.714 134.516 127.437 133.795C128.16 133.073 129.14 132.668 130.162 132.668H164.836C165.858 132.668 166.838 133.073 167.561 133.795C168.284 134.516 168.692 135.495 168.695 136.516Z" stroke="#BEF4F4" stroke-width="1.5" stroke-miterlimit="10"></path> <path d="M274.173 66.127H236.937C235.504 66.127 234.342 67.2888 234.342 68.722V78.498C234.342 79.9311 235.504 81.093 236.937 81.093H274.173C275.606 81.093 276.768 79.9311 276.768 78.498V68.722C276.768 67.2888 275.606 66.127 274.173 66.127Z" fill="#F9807D"></path> <path d="M276.769 94.3026V119.649C276.77 120.156 276.672 120.659 276.478 121.129C276.285 121.598 276.001 122.025 275.642 122.385C275.284 122.744 274.858 123.029 274.389 123.224C273.92 123.419 273.418 123.519 272.91 123.519H238.19C237.164 123.519 236.18 123.111 235.454 122.385C234.728 121.659 234.32 120.675 234.32 119.649V94.3026C234.323 93.2781 234.732 92.2966 235.458 91.5732C236.183 90.8498 237.166 90.4436 238.19 90.4436H272.865C273.376 90.4377 273.882 90.5331 274.356 90.7244C274.829 90.9157 275.26 91.199 275.623 91.5579C275.986 91.9169 276.274 92.3443 276.471 92.8154C276.668 93.2865 276.769 93.792 276.769 94.3026Z" fill="#BEF4F4"></path> <path d="M239.186 90.4438V123.519H238.19C237.682 123.519 237.179 123.419 236.709 123.224C236.24 123.03 235.813 122.745 235.454 122.385C235.094 122.026 234.809 121.599 234.615 121.13C234.42 120.66 234.32 120.157 234.32 119.649V94.3028C234.323 93.2783 234.732 92.2968 235.458 91.5734C236.183 90.8501 237.166 90.4438 238.19 90.4438H239.186Z" fill="#F9807D"></path> <path d="M276.769 136.516V161.873C276.769 162.897 276.362 163.878 275.639 164.602C274.915 165.326 273.933 165.732 272.91 165.732H238.19C237.166 165.732 236.183 165.326 235.458 164.603C234.732 163.879 234.323 162.898 234.32 161.873V136.516C234.322 136.009 234.423 135.508 234.618 135.04C234.814 134.573 235.099 134.148 235.458 133.791C235.818 133.433 236.244 133.15 236.713 132.958C237.182 132.765 237.684 132.667 238.19 132.668H272.865C273.375 132.661 273.881 132.755 274.355 132.945C274.828 133.135 275.259 133.417 275.622 133.775C275.985 134.133 276.274 134.56 276.471 135.031C276.667 135.501 276.769 136.006 276.769 136.516Z" fill="#BEF4F4"></path> <path d="M239.186 132.668V165.732H238.19C237.166 165.732 236.183 165.326 235.458 164.603C234.732 163.879 234.323 162.898 234.32 161.873V136.516C234.322 136.009 234.423 135.508 234.618 135.04C234.814 134.573 235.099 134.148 235.458 133.791C235.818 133.434 236.244 133.151 236.713 132.958C237.182 132.765 237.684 132.667 238.19 132.668H239.186Z" fill="#F9807D"></path> <path d="M269.018 97.502H244.187C243.315 97.502 242.609 98.2081 242.609 99.0791V99.0903C242.609 99.9613 243.315 100.667 244.187 100.667H269.018C269.889 100.667 270.595 99.9613 270.595 99.0903V99.0791C270.595 98.2081 269.889 97.502 269.018 97.502Z" fill="white"></path> <path d="M269.018 104.627H244.187C243.315 104.627 242.609 105.333 242.609 106.204V106.215C242.609 107.086 243.315 107.792 244.187 107.792H269.018C269.889 107.792 270.595 107.086 270.595 106.215V106.204C270.595 105.333 269.889 104.627 269.018 104.627Z" fill="white"></path> <path d="M269.018 111.741H244.187C243.315 111.741 242.609 112.447 242.609 113.318V113.329C242.609 114.2 243.315 114.906 244.187 114.906H269.018C269.889 114.906 270.595 114.2 270.595 113.329V113.318C270.595 112.447 269.889 111.741 269.018 111.741Z" fill="white"></path> <path d="M115.9 136.516V161.873C115.9 162.897 115.493 163.878 114.77 164.602C114.046 165.326 113.064 165.732 112.041 165.732H77.3662C76.3417 165.732 75.359 165.326 74.6336 164.603C73.9081 163.879 73.4991 162.898 73.4961 161.873V136.516C73.4976 136.009 73.5988 135.508 73.7941 135.04C73.9894 134.573 74.2749 134.148 74.6343 133.791C74.9936 133.434 75.4199 133.151 75.8886 132.958C76.3574 132.765 76.8595 132.667 77.3662 132.668H112.041C112.547 132.667 113.049 132.765 113.517 132.958C113.985 133.151 114.41 133.434 114.769 133.791C115.127 134.149 115.412 134.574 115.606 135.041C115.8 135.509 115.9 136.01 115.9 136.516Z" fill="#BEF4F4"></path> <path d="M78.3179 132.668V165.732H77.3447C76.3203 165.732 75.3376 165.326 74.6121 164.603C73.8866 163.879 73.4776 162.898 73.4746 161.873V136.516C73.4761 136.009 73.5773 135.508 73.7726 135.04C73.9679 134.573 74.2534 134.148 74.6128 133.791C74.9721 133.434 75.3984 133.151 75.8671 132.958C76.3359 132.765 76.838 132.667 77.3447 132.668H78.3179Z" fill="#F9807D"></path> <path d="M108.149 139.715H83.3174C82.4463 139.715 81.7402 140.421 81.7402 141.292V141.304C81.7402 142.175 82.4463 142.881 83.3174 142.881H108.149C109.02 142.881 109.726 142.175 109.726 141.304V141.292C109.726 140.421 109.02 139.715 108.149 139.715Z" fill="white"></path> <path d="M108.149 146.84H83.3174C82.4463 146.84 81.7402 147.546 81.7402 148.417V148.429C81.7402 149.3 82.4463 150.006 83.3174 150.006H108.149C109.02 150.006 109.726 149.3 109.726 148.429V148.417C109.726 147.546 109.02 146.84 108.149 146.84Z" fill="white"></path> <path d="M108.149 153.954H83.3174C82.4463 153.954 81.7402 154.66 81.7402 155.531V155.542C81.7402 156.413 82.4463 157.12 83.3174 157.12H108.149C109.02 157.12 109.726 156.413 109.726 155.542V155.531C109.726 154.66 109.02 153.954 108.149 153.954Z" fill="white"></path> <path d="M195.999 189.261C192.889 188.143 189.623 186.845 186.335 185.492L179.321 182.337L179.064 182.248C173.393 180.414 168.997 178.814 167.185 178.065C166.728 177.942 166.304 177.717 165.946 177.407C165.587 177.097 165.304 176.71 165.116 176.275C165.043 175.77 165.081 175.254 165.228 174.765C165.664 173.792 166.693 173.702 166.749 173.042C166.805 172.383 165.798 172.181 165.765 171.454C165.575 170.268 168.181 169.586 168.349 167.852C168.427 167.17 168.058 167.047 168.17 166.253C168.2 165.82 168.344 165.402 168.587 165.043C168.831 164.683 169.165 164.394 169.557 164.206C170.166 163.713 170.86 163.334 171.604 163.087C174.053 162.383 177.599 164.788 180.44 166.723C182.532 167.975 185.507 169.911 189.388 171.902C191.469 172.304 194.343 172.863 197.912 173.535L195.999 189.261Z" fill="#F2C6C4"></path> <path d="M304.252 132.081C297.339 136.455 287.474 142.842 276.02 150.951C247.419 171.085 224.377 187.404 226.905 192.963C238.403 218.276 309.005 178.232 309.005 178.232C309.005 178.232 328.322 126.455 304.252 132.081Z" fill="#6CAAAF"></path> <path d="M183.08 184.44C183.08 184.44 231.177 210.39 244.913 207.224C258.648 204.059 309.005 178.232 309.005 178.232L272.597 179.999L232.083 193.869L190.306 181.856L183.08 184.44Z" fill="#6CAAAF"></path> <path d="M183.08 184.44C184.032 183.612 184.925 182.719 185.753 181.767C188.272 178.87 190.175 175.49 191.346 171.834C198.266 173.199 205.44 174.795 212.867 176.622C222.005 178.859 230.663 181.342 238.817 183.892L245.013 202.907L183.08 184.44Z" fill="#6CAAAF"></path> <path d="M177.509 164.81C172.106 158.703 163.583 157.696 161.514 159.049C160.473 159.813 159.308 160.388 158.069 160.749C157.713 160.83 157.362 160.931 157.017 161.051C156.123 161.365 155.686 161.521 155.384 161.902C154.859 162.561 155.384 163.121 154.881 163.904C154.378 164.687 153.83 164.429 153.494 165.022C152.957 165.973 154.02 167.517 154.176 167.751C155.215 169.069 156.684 169.979 158.326 170.324C165.619 172.237 166.156 175.134 174.086 176.275C177.789 176.812 180.193 177.158 181.312 175.794C183.158 173.467 180.283 167.953 177.509 164.81Z" fill="#F2C6C4"></path> <path d="M332.46 95.6283C332.861 96.6984 332.88 98.0046 332.591 99.2385C332.303 100.472 332.014 101.706 330.8 102.723L330.78 101.417C331.941 102.015 333.031 102.921 334.265 103.21C333.576 103.374 332.887 103.538 332.27 103.393C331.653 103.249 331.036 103.104 330.11 102.887L329.257 102.361L330.091 101.581C330.544 101.036 331.069 100.183 331.358 98.9491C331.883 98.096 332.171 96.8622 332.46 95.6283Z" fill="#EDA8A5"></path> <path d="M343.562 96.0506C344.103 96.1454 344.637 95.6794 344.754 95.0099C344.871 94.3404 344.528 93.7209 343.987 93.6261C343.446 93.5314 342.913 93.9973 342.795 94.6668C342.678 95.3363 343.021 95.9559 343.562 96.0506Z" fill="#2D2A32"></path> <path d="M325.403 96.3651C324.862 96.4598 324.328 95.9939 324.211 95.3244C324.094 94.6549 324.437 94.0353 324.978 93.9406C325.519 93.8458 326.052 94.3118 326.169 94.9813C326.287 95.6508 325.943 96.2703 325.403 96.3651Z" fill="#2D2A32"></path> <path d="M349.147 90.8595C349.179 90.1779 347.282 89.3747 344.911 89.0654C342.54 88.7561 340.592 89.0579 340.56 89.7395C340.528 90.4211 342.424 91.2244 344.795 91.5337C347.166 91.8429 349.115 91.5411 349.147 90.8595Z" fill="#2D2A32"></path> <path d="M319.82 90.8595C319.788 90.1779 321.685 89.3747 324.056 89.0654C326.427 88.7561 328.375 89.0579 328.407 89.7395C328.439 90.4211 326.543 91.2244 324.171 91.5337C321.8 91.8429 319.852 91.5411 319.82 90.8595Z" fill="#2D2A32"></path> <path d="M328.434 108.579C330.563 110.01 335.743 111.846 339.43 107.741" stroke="#EDA8A5" stroke-width="0.75946" stroke-linecap="round"></path> <path d="M338.383 106.838C339.273 107.153 340.215 107.781 340.503 108.645" stroke="#EDA8A5" stroke-width="0.75946" stroke-linecap="round"></path> <path d="M392.437 153.705C385.192 140.267 373.383 129.856 359.138 124.349C354.748 122.653 350.188 121.432 345.538 120.705H345.233C344.693 120.611 344.177 120.541 343.685 120.482C342.747 120.353 341.879 120.271 341.094 120.201C340.308 120.131 339.488 120.072 338.831 120.037C333.203 119.811 327.567 120.065 321.982 120.799C321.724 120.799 321.478 120.857 321.22 120.904C315.068 121.732 309.04 123.306 303.269 125.592C295.151 128.771 287.792 133.622 281.672 139.83C278.365 143.115 275.596 146.9 273.465 151.045L292.072 151.479L311.84 151.936L360.205 153.049L375.541 153.401L392.519 153.799C392.496 153.796 392.475 153.785 392.46 153.768C392.445 153.75 392.437 153.728 392.437 153.705ZM328.654 129.178C328.056 128.205 327.481 127.279 326.778 126.4C330.462 127.049 334.235 127.009 337.905 126.283C336.943 127.314 336.052 128.381 335.255 129.4C333.872 131.167 332.607 133.023 331.468 134.955C330.737 132.935 329.794 130.998 328.654 129.178Z" fill="#6CAAAF"></path> <path d="M345.606 95.6836V104.531V108.727V120.446V129.727L335.347 129.375C333.965 131.142 332.7 132.998 331.56 134.93C330.83 132.91 329.886 130.973 328.746 129.153L321.289 128.907V119.907V110.367V94.8398L345.606 95.6836Z" fill="#F2C6C4"></path> <path d="M303.05 125.936C297.435 130.109 289.42 136.203 280.116 143.941C256.882 163.151 238.163 178.723 240.217 184.027C249.558 208.18 306.912 169.971 306.912 169.971C306.912 169.971 322.605 120.567 303.05 125.936Z" fill="#6CAAAF"></path> <path d="M416.766 212.392C416.086 213.564 411.115 221.768 405.78 220.936C402.028 220.338 398.968 215.369 397.912 208.642C393.539 202.267 388.685 195.681 383.327 188.978C375.47 179.135 367.062 169.745 358.142 160.853C357.485 160.197 356.828 159.575 356.207 158.954C356.641 158.298 357.028 157.642 357.485 156.962C362.744 148.879 369.013 141.499 376.139 135.001C377.794 136.327 379.361 137.76 380.829 139.29C382.447 141.212 384.288 143.485 386.281 145.958C401.676 164.978 425.302 198.06 416.766 212.392Z" fill="#6CAAAF"></path> <path d="M375.478 259.116L372.207 540.181H340.667L328.098 260.932L375.478 259.116Z" fill="#0C0C0C"></path> <path d="M373.099 137.849L354.937 127.068L345.557 121.478L344.619 120.927C342.096 122.315 339.831 124.126 337.924 126.283C336.963 127.314 336.072 128.38 335.275 129.4C333.892 131.167 332.627 133.022 331.487 134.955C330.757 132.935 329.814 130.998 328.673 129.177C328.075 128.205 327.501 127.279 326.797 126.4C325.629 124.796 324.372 123.259 323.034 121.794L321.228 122.814L320.232 123.376L318.672 124.255L309.855 129.224L309.574 129.388L291.986 139.267V264.577H375.456V139.267L373.099 137.849Z" fill="#6CAAAF"></path> <path d="M292.013 263.992L240.061 539.889L269.9 539.585L345.842 264.531L292.013 263.992Z" fill="#0C0C0C"></path> <path d="M347.318 104.79C347.318 104.79 342.898 116.508 331.337 117.352C327.726 117.587 324.056 116.18 322.309 113.321C321.811 112.582 321.535 111.716 321.512 110.825C321.512 107.239 333.026 102.68 333.026 102.68L347.318 104.79Z" fill="#EDA8A5"></path> <path d="M333.66 113.802L334.657 113.697C345.702 112.63 353.979 101.755 353.135 89.4268L352.455 79.6416C351.611 67.3133 341.961 58.1843 330.905 59.2507L329.908 59.3562C318.863 60.4226 310.574 71.2977 311.43 83.626L312.098 93.4113C312.954 105.704 322.604 114.833 333.66 113.802Z" fill="#F2C6C4"></path> <path d="M354.167 135.951L340.976 136.22L322.85 136.584L312.614 136.795H311.371L312.333 135.13L314.302 131.732L318.652 124.232L319.567 122.662C319.759 122.912 319.975 123.143 320.212 123.353C320.526 123.64 320.859 123.906 321.208 124.15C322.896 125.259 324.79 126.016 326.778 126.376C327.422 127.255 328.056 128.181 328.654 129.154C329.794 130.974 330.737 132.911 331.468 134.931C332.607 132.999 333.872 131.143 335.255 129.377C336.052 128.357 336.943 127.291 337.904 126.259C340.485 125.806 343.032 125.176 345.526 124.373L346.815 123.951L350.497 129.951L354.167 135.951Z" fill="#6CAAAF"></path> <path d="M307.267 70.1602C307.267 70.1602 305.496 87.7385 311.628 87.9846C311.628 87.9846 319.519 70.1602 313.973 70.5703C308.427 70.9805 307.267 70.1602 307.267 70.1602Z" fill="#665C5A"></path> <path d="M354.274 68.6493C354.274 68.6493 356.045 86.2276 349.924 86.4737C349.924 86.4737 343.253 71.4032 346.512 69.2938C346.77 69.1298 346.899 69.2938 347.603 69.0594C350.604 68.2508 351.366 65.5438 352.586 65.6961C353.113 65.7547 353.735 66.3875 354.274 68.6493Z" fill="#665C5A"></path> <path d="M306.222 92.3919C307.781 95.8138 311.006 97.5131 313.444 96.1537C315.883 94.7943 316.587 90.9505 315.027 87.5286C313.468 84.1067 310.255 82.4074 307.817 83.7668C305.378 85.1262 304.663 88.97 306.222 92.3919Z" fill="#F2C6C4"></path> <path d="M349.172 87.8797C348.539 91.3954 350.227 94.5595 352.994 94.911C355.761 95.2626 358.517 92.5673 359.161 89.0516C359.806 85.5359 358.118 82.3836 355.339 82.0203C352.56 81.657 349.817 84.3406 349.172 87.8797Z" fill="#F2C6C4"></path> <path d="M350.039 235.678C348.866 242.194 320.609 240.049 318.487 237.096C317.752 235.966 316.828 234.971 315.755 234.155C315.438 233.94 315.133 233.71 314.841 233.463C314.09 232.819 313.668 232.502 313.563 232.022C313.293 231.167 314.032 230.85 313.82 229.877C313.609 228.905 312.988 228.963 312.882 228.272C312.707 227.1 314.325 226.034 314.571 225.928C316.079 225.042 317.85 224.71 319.577 224.991C327.433 225.858 329.063 223.233 337.247 225.084C339.734 225.667 342.076 226.752 344.129 228.272C346.017 229.561 350.519 232.889 350.039 235.678Z" fill="#F2C6C4"></path> <path d="M409.89 219.471L376.592 236.159L353.248 246.46L351.207 242.522L345.474 231.507L342.895 226.432L392.057 199.479L400.182 196.831C403.418 204.393 406.654 211.94 409.89 219.471Z" fill="#6CAAAF"></path> <path d="M341.482 233.545L372.4 224.803L256.758 220.936L273.313 233.545H341.482Z" fill="#B2B2B2"></path> <path d="M359.137 124.349L354.939 127.115L350.495 130.021L340.975 136.267L332.345 141.927L322.965 136.595L314.418 131.767L309.951 129.236L308.192 128.252L303.268 125.521C309.039 123.236 315.067 121.662 321.218 120.833C321.476 120.833 321.723 120.751 321.98 120.728C322.309 121.056 322.649 121.419 323.012 121.818C324.185 123.084 330.762 132.963 331.466 134.978C332.605 133.046 333.871 131.19 335.253 129.423C336.05 128.404 336.941 127.337 337.903 126.306C339.81 124.15 342.075 122.338 344.598 120.951C344.809 120.834 345.02 120.728 345.231 120.634H345.536C350.189 121.384 354.749 122.629 359.137 124.349Z" fill="#6CAAAF"></path> <path fill-rule="evenodd" clip-rule="evenodd" d="M327.571 127.312C329.711 127.845 332.814 128.617 338.575 126.955L340.466 132.061L337.766 134.699L342.169 177.442L331.58 195.594L320.234 176.496L327.619 135.325L324.582 132.061L325.528 126.955C326.135 126.955 326.789 127.118 327.571 127.312Z" fill="#0C0C0C"></path> <path d="M230 161.275L248.584 233.546H341.48L322.966 161.275H230Z" fill="#D1D1D1"></path> <path d="M278.259 199.279C277.497 196.935 278.447 194.463 280.37 193.842C282.293 193.221 284.485 194.662 285.247 197.041C286.01 199.42 285.072 201.857 283.137 202.478C281.202 203.1 279.021 201.693 278.259 199.279Z" fill="white"></path> <path d="M329.691 89.4784C330.138 90.5995 330.183 91.9588 329.899 93.2368C329.614 94.5148 329.329 95.7928 328.054 96.8268L328.009 95.4675C329.258 96.1123 330.436 97.0765 331.756 97.4018C331.025 97.5587 330.293 97.7155 329.633 97.5529C328.973 97.3903 328.313 97.2276 327.323 96.9837L326.404 96.4202L327.277 95.6244C327.75 95.0667 328.293 94.1895 328.578 92.9115C329.122 92.0343 329.407 90.7564 329.691 89.4784Z" fill="#EDA8A5"></path> <path d="M341.403 89.8922C341.97 89.9915 342.53 89.5033 342.653 88.8019C342.776 88.1004 342.416 87.4514 341.849 87.3521C341.282 87.2528 340.723 87.741 340.6 88.4424C340.477 89.1438 340.836 89.7929 341.403 89.8922Z" fill="#2D2A32"></path> <path d="M332.124 128.241L320.968 119.165C319.455 119.165 314.665 121.497 312.459 122.663L317.375 138.641C318.283 137.582 328.185 130.51 332.124 128.241Z" fill="#536A6C"></path> <path d="M332.028 128.241L345.049 118.503C346.562 118.503 351.095 121.213 353.301 122.379L346.399 138.546C345.491 137.488 335.968 130.51 332.028 128.241Z" fill="#536A6C"></path> <path d="M322.368 90.2218C321.801 90.3211 321.242 89.8329 321.119 89.1315C320.996 88.43 321.356 87.7809 321.923 87.6817C322.49 87.5824 323.049 88.0706 323.172 88.772C323.295 89.4734 322.935 90.1225 322.368 90.2218Z" fill="#2D2A32"></path> <path d="M347.257 84.4537C347.29 83.7396 345.303 82.898 342.817 82.574C340.332 82.2499 338.289 82.5661 338.256 83.2802C338.222 83.9943 340.21 84.8359 342.696 85.16C345.181 85.484 347.223 85.1678 347.257 84.4537Z" fill="#463C3A"></path> <path d="M316.515 84.4537C316.481 83.7396 318.469 82.898 320.954 82.574C323.44 82.2499 325.482 82.5661 325.515 83.2802C325.549 83.9943 323.561 84.8359 321.076 85.16C318.59 85.484 316.548 85.1678 316.515 84.4537Z" fill="#463C3A"></path> <path d="M325.545 103.019C327.777 104.518 333.207 106.441 337.071 102.141" stroke="#EDA8A5" stroke-width="0.75946" stroke-linecap="round"></path> <path d="M335.973 101.194C336.906 101.523 337.894 102.182 338.196 103.087" stroke="#EDA8A5" stroke-width="0.75946" stroke-linecap="round"></path> <path d="M345.89 73.4691C354.602 74.7522 357.014 69.299 357.131 66.412C354.625 54.9689 348.349 60.0766 344.837 56.548C341.324 53.0195 332.279 46.9247 316.823 50.1325C301.368 53.3403 304.09 68.3367 309.71 73.4691C315.33 78.6016 323.936 81.0073 331.664 76.8371C339.392 72.667 335.001 71.8652 345.89 73.4691Z" fill="#463C3A"></path> </g> <defs> <clipPath id="clip0_5651_71237"> <rect width="482" height="270" fill="white"></rect> </clipPath> </defs> </svg> 